<svg xmlns="http://www.w3.org/2000/svg" version="1.1" xmlns:xlink="http://www.w3.org/1999/xlink" width="1280" height="800" viewBox="0 0 1280 800" data-app="Xyris">
    <defs>
        <radialGradient id="radialGradient-598jgLi4HNRoznd1a4C1TP" cx="640" cy="400" fx="640" fy="400" r="533.67" gradientTransform="matrix(0.0007813,0,0,0.00125,0,0)">
            <stop offset="0" stop-color="#4acbfc">
            </stop>
            <stop offset="1" stop-color="#01b1fa">
            </stop>
        </radialGradient>
    </defs>
    <g id="Background">
        <rect width="1280" height="800" fill="url(#radialGradient-598jgLi4HNRoznd1a4C1TP)">
        </rect>
    </g>
    <g transform-origin="center" style="transform-box: fill-box;">
        <ellipse id="Shadow" cx="640.001" cy="595.912" rx="139.409" ry="32.1714" fill="rgb(9, 160, 204)" transform-origin="center" fill-opacity="0.3" style="transform-box: fill-box;">
            <animateTransform attributeName="transform" type="scale" begin="-0.00002" dur="8.000039999999998" keyTimes="0; 0.0375; 0.075; 0.11249999999999999; 1" values="1, 1; 1, 1; 0.95; 1, 1; 1, 1" fill="freeze" additive="sum" calcMode="spline" keySplines="0 0 1 1; 0 0 1 1; 0 0 1 1; 0 0 1 1" repeatCount="indefinite">
            </animateTransform>
        </ellipse>
        <g id="Foot" transform-origin="top" style="transform-box: fill-box;">
            <g id="Right_foot">
                <g>
                    <ellipse cx="607.142" cy="547.581" rx="32.8576" ry="49.2865" fill="#e4a345">
                    </ellipse>
                    <path d="M 589.706 546.938 C 589.706 524.181 599.989 505.028 613.962 499.366 C 611.754 498.669 609.47 498.294 607.132 498.294 C 588.986 498.294 574.275 520.364 574.275 547.581 C 574.275 574.798 588.986 596.867 607.132 596.867 C 610.114 596.867 612.987 596.267 615.733 595.151 C 600.859 590.433 589.706 570.648 589.706 546.938 Z" fill="#c68632">
                    </path>
                    <ellipse cx="607.142" cy="547.581" rx="32.8576" ry="49.2865" stroke-linecap="round" stroke-linejoin="round" stroke="#333" stroke-width="4.9px" fill="none">
                    </ellipse>
                </g>
            </g>
            <g id="Left_foot">
                <g>
                    <ellipse cx="672.858" cy="547.581" rx="32.8576" ry="49.2865" fill="#e4a345">
                    </ellipse>
                    <path d="M 655.433 546.938 C 655.433 524.181 665.716 505.028 679.689 499.366 C 677.48 498.669 675.196 498.294 672.858 498.294 C 654.714 498.294 640.001 520.364 640.001 547.581 C 640.001 574.798 654.714 596.867 672.858 596.867 C 675.839 596.867 678.713 596.267 681.458 595.151 C 666.585 590.433 655.433 570.648 655.433 546.938 Z" fill="#c68632">
                    </path>
                    <ellipse cx="672.858" cy="547.581" rx="32.8576" ry="49.2865" stroke-linecap="round" stroke-linejoin="round" stroke="#333" stroke-width="4.9px" fill="none">
                    </ellipse>
                </g>
            </g>
            <animateTransform attributeName="transform" type="translate" begin="-0.00002" dur="8.000039999999998" keyTimes="0; 0.03749999999999999; 0.07499999999999998; 0.11249999999999998; 1" values="0, 0; 0, 0; 0, -10; 0, 0; 0, 0" fill="freeze" additive="sum" calcMode="spline" keySplines="0 0 1 1; 0 0 1 1; 0 0 1 1; 0 0 1 1" repeatCount="indefinite">
            </animateTransform>
        </g>
        <g id="Animation_2" transform-origin="center" style="transform-box: fill-box;">
            <g transform-origin="center" style="transform-box: fill-box;">
                <g id="Wings_1" transform-origin="center" style="transform-box: fill-box;">
                    <g transform-origin="left top" style="transform-box: fill-box;">
                        <path d="M 856.77 379.518 L 836.705 373.642 L 837.715 384.43 C 838.209 389.758 833.06 393.833 827.989 392.128 L 771.034 372.944 L 767.292 371.678 L 746.562 364.698 C 746.755 363.893 746.97 363.089 747.195 362.285 C 756.353 329.803 786.208 305.994 821.628 305.994 C 857.049 305.994 884.782 328.15 895 358.885 L 895 358.885 C 895 358.885 862.582 358.885 862.582 358.885 L 865.961 370.306 C 867.624 375.925 862.412 381.148 856.793 379.507 Z" fill="#efbf3f">
                        </path>
                        <path d="M 856.77 379.518 L 836.705 373.642 L 837.715 384.43 C 838.209 389.758 833.06 393.833 827.989 392.128 L 771.034 372.944 C 780.867 346.305 806.497 327.304 836.567 327.304 C 861.017 327.304 882.529 339.86 895 358.885 L 862.582 358.885 L 865.961 370.306 C 867.624 375.925 862.412 381.148 856.793 379.507 Z" stroke-linecap="round" stroke-linejoin="round" stroke="#333" stroke-width="4.9px" fill="#ea8888">
                        </path>
                        <path d="M 798.294 356.751 L 822.058 390.134 L 827.967 392.128 C 833.04 393.833 838.186 389.758 837.693 384.43 L 836.686 373.642 L 856.75 379.518 C 862.369 381.157 867.58 375.936 865.919 370.317 L 862.539 358.896 L 894.958 358.896 L 894.958 358.896 C 894.958 358.896 847.549 312.118 798.272 356.751 Z" fill="#f5a19f">
                        </path>
                        <path d="M 856.77 379.518 L 836.705 373.642 L 837.715 384.43 C 838.209 389.758 833.06 393.833 827.989 392.128 L 771.034 372.944 L 767.292 371.678 L 746.562 364.698 C 746.755 363.893 746.97 363.089 747.195 362.285 C 756.353 329.803 786.208 305.994 821.628 305.994 C 857.049 305.994 884.782 328.15 895 358.885 L 895 358.885 C 895 358.885 862.582 358.885 862.582 358.885 L 865.961 370.306 C 867.624 375.925 862.412 381.148 856.793 379.507 Z" stroke-linecap="round" stroke-linejoin="round" stroke="#333" stroke-width="4.9px" fill="none">
                        </path>
                        <animateTransform attributeName="transform" type="rotate" begin="-0.00002" dur="8.000039999999998" keyTimes="0; 0.03125; 0.1875; 0.21875; 1" values="0; 70; 70; 0; 0" fill="freeze" additive="sum" calcMode="spline" keySplines="0 0 1 1; 0 0 1 1; 0 0 1 1; 0 0 1 1" repeatCount="indefinite">
                        </animateTransform>
                    </g>
                    <g transform-origin="right top" style="transform-box: fill-box;">
                        <path d="M 423.23 379.518 L 443.294 373.642 L 442.286 384.43 C 441.792 389.758 446.941 393.833 452.012 392.128 L 508.967 372.944 L 512.709 371.678 L 533.439 364.698 C 533.245 363.893 533.03 363.089 532.806 362.285 C 523.648 329.803 493.792 305.994 458.372 305.994 C 424.205 305.994 395.219 328.15 385 358.885 L 385 358.885 C 385 358.885 417.418 358.885 417.418 358.885 L 414.041 370.306 C 412.377 375.925 417.589 381.148 423.208 379.507 Z" fill="#efbf3f">
                        </path>
                        <path d="M 423.23 379.518 L 443.294 373.642 L 442.286 384.43 C 441.792 389.758 446.941 393.833 452.012 392.128 L 508.967 372.944 C 499.133 346.305 473.504 327.304 443.433 327.304 C 418.983 327.304 397.471 339.86 385 358.885 L 417.418 358.885 C 417.418 358.885 414.041 370.306 414.041 370.306 C 412.377 375.925 417.589 381.148 423.208 379.507 Z" stroke-linecap="round" stroke-linejoin="round" stroke="#333" stroke-width="4.9px" fill="#ea8888">
                        </path>
                        <path d="M 481.707 356.751 L 457.942 390.134 L 452.033 392.128 C 446.961 393.833 441.814 389.758 442.307 384.43 L 443.316 373.642 L 423.251 379.518 C 417.631 381.157 412.421 375.936 414.082 370.317 L 417.461 358.896 L 385.042 358.896 C 385.042 358.896 385.042 358.896 385.042 358.896 C 385.042 358.896 432.452 312.118 481.728 356.751 Z" fill="#f5a19f">
                        </path>
                        <path d="M 423.23 379.518 L 443.294 373.642 L 442.286 384.43 C 441.792 389.758 446.941 393.833 452.012 392.128 L 508.967 372.944 L 512.709 371.678 L 533.439 364.698 C 533.245 363.893 533.03 363.089 532.806 362.285 C 523.648 329.803 493.792 305.994 458.372 305.994 C 424.205 305.994 395.219 328.15 385 358.885 L 385 358.885 C 385 358.885 417.418 358.885 417.418 358.885 L 414.041 370.306 C 412.377 375.925 417.589 381.148 423.208 379.507 Z" stroke-linecap="round" stroke-linejoin="round" stroke="#333" stroke-width="4.9px" fill="none">
                        </path>
                        <animateTransform attributeName="transform" type="rotate" begin="-0.00002" dur="8.000039999999998" keyTimes="0; 0.03125; 0.1875; 0.21875; 1" values="0; -70; -70; 0; 0" fill="freeze" additive="sum" calcMode="spline" keySplines="0 0 1 1; 0 0 1 1; 0 0 1 1; 0 0 1 1" repeatCount="indefinite">
                        </animateTransform>
                    </g>
                    <animateTransform attributeName="transform" type="scale" begin="-0.00002" dur="0.8000400000000001" keyTimes="0; 0.5; 1" values="1, 1;1.05;1, 1" fill="freeze" additive="sum" calcMode="spline" keySplines="0 0 1 1; 0 0 1 1" repeatCount="indefinite">
                    </animateTransform>
                </g>
                <g id="Horn">
                    <g>
                        <path d="M 699.453 247.937 L 735.109 212.281 C 756.149 191.24 792.02 200.281 800.578 228.774 L 808.964 256.698 C 810.402 261.471 812.546 265.995 815.334 270.113 L 815.334 270.113 C 818.476 274.757 813.211 280.473 808.332 277.706 L 784.363 264.173 C 774.219 258.446 761.498 260.183 753.264 268.418 L 736.664 285.019 L 699.463 247.937 Z" fill="#99cad9">
                        </path>
                        <path d="M 736.654 285.03 L 753.255 268.43 C 761.491 260.194 774.208 258.457 784.354 264.184 L 808.321 277.716 C 809.735 278.521 811.184 278.596 812.45 278.21 L 781.919 248.569 C 771.904 238.854 755.945 238.972 746.08 248.838 L 741.983 252.935 C 741.983 252.935 732.794 244.098 729.125 241.31 C 726.047 238.961 715.001 232.387 715.001 232.387 L 699.443 247.948 L 736.642 285.03 Z" fill="#7aafbf">
                        </path>
                        <path d="M 762.863 233.921 C 762.863 233.921 767.507 244.473 766.884 261.256" stroke-linecap="round" stroke-linejoin="round" stroke="#333" stroke-width="4.9px" fill="none">
                        </path>
                        <path d="M 783.078 263.519 C 789.758 255.679 792.632 244.419 792.632 244.419" stroke-linecap="round" stroke-linejoin="round" stroke="#333" stroke-width="4.9px" fill="none">
                        </path>
                        <path d="M 738.519 249.299 C 744.365 254.928 749.319 260.998 753.833 267.862" stroke-linecap="round" stroke-linejoin="round" stroke="#333" stroke-width="4.9px" fill="none">
                        </path>
                        <path d="M 770.113 211.519 C 767.678 210.907 765.232 210.607 762.809 210.607 C 755.12 210.607 747.71 213.631 742.079 219.262" stroke-linecap="round" stroke-linejoin="round" stroke-width="4.9px" fill="none" stroke="#fff">
                        </path>
                        <path d="M 699.453 247.937 L 735.109 212.281 C 756.149 191.24 792.02 200.281 800.578 228.774 L 808.964 256.698 C 810.402 261.471 812.546 265.995 815.334 270.113 L 815.334 270.113 C 818.476 274.757 813.211 280.473 808.332 277.706 L 784.363 264.173 C 774.219 258.446 761.498 260.183 753.264 268.418 L 736.664 285.019" stroke-linecap="round" stroke-linejoin="round" stroke="#333" stroke-width="4.9px" fill="none">
                        </path>
                    </g>
                    <g>
                        <path d="M 580.549 247.937 L 544.891 212.281 C 523.852 191.24 487.98 200.281 479.422 228.774 L 471.036 256.698 C 469.599 261.471 467.454 265.995 464.666 270.113 L 464.666 270.113 C 461.524 274.757 466.789 280.473 471.668 277.706 L 495.637 264.173 C 505.781 258.446 518.501 260.183 526.736 268.418 L 543.336 285.019 L 580.537 247.937 Z" fill="#99cad9">
                        </path>
                        <path d="M 543.347 285.03 L 526.745 268.43 C 518.51 260.194 505.792 258.457 495.647 264.184 L 471.679 277.716 C 470.265 278.521 468.816 278.596 467.551 278.21 L 498.081 248.569 C 508.098 238.854 524.055 238.972 533.92 248.838 L 538.018 252.935 C 538.018 252.935 547.207 244.098 550.875 241.31 C 553.953 238.961 564.999 232.387 564.999 232.387 L 580.558 247.948 L 543.359 285.03 Z" fill="#7aafbf">
                        </path>
                        <path d="M 517.138 233.921 C 517.138 233.921 512.496 244.473 513.116 261.256" stroke-linecap="round" stroke-linejoin="round" stroke="#333" stroke-width="4.9px" fill="none">
                        </path>
                        <path d="M 496.923 263.519 C 490.244 255.679 487.369 244.419 487.369 244.419" stroke-linecap="round" stroke-linejoin="round" stroke="#333" stroke-width="4.9px" fill="none">
                        </path>
                        <path d="M 541.482 249.299 C 535.636 254.928 530.682 260.998 526.167 267.862" stroke-linecap="round" stroke-linejoin="round" stroke="#333" stroke-width="4.9px" fill="none">
                        </path>
                        <path d="M 509.887 211.519 C 512.323 210.907 514.768 210.607 517.192 210.607 C 524.881 210.607 532.29 213.631 537.921 219.262" stroke-linecap="round" stroke-linejoin="round" stroke-width="4.9px" fill="none" stroke="#fff">
                        </path>
                        <path d="M 580.549 247.937 L 544.891 212.281 C 523.852 191.24 487.98 200.281 479.422 228.774 L 471.036 256.698 C 469.599 261.471 467.454 265.995 464.666 270.113 L 464.666 270.113 C 461.524 274.757 466.789 280.473 471.668 277.706 L 495.637 264.173 C 505.781 258.446 518.501 260.183 526.736 268.418 L 543.336 285.019" stroke-linecap="round" stroke-linejoin="round" stroke="#333" stroke-width="4.9px" fill="none">
                        </path>
                    </g>
                </g>
                <g id="Body">
                    <path d="M 808.407 435.313 C 789.222 322.993 743.935 265.374 705.147 235.98 C 666.691 206.822 613.298 206.822 574.843 235.98 C 536.055 265.374 490.769 322.993 471.584 435.313 C 453.234 542.734 544.397 570.305 639.989 571.077 C 735.582 570.305 826.744 542.734 808.396 435.313 Z" fill="#efbf3f">
                    </path>
                    <path d="M 653.909 558.004 C 560.054 558.894 470.092 533.533 486.264 428.289 C 503.175 318.242 546.65 261.19 584.226 231.818 C 588.827 228.216 593.663 225.052 598.672 222.318 C 590.318 225.781 582.295 230.328 574.843 235.98 C 536.055 265.374 490.769 322.993 471.584 435.313 C 453.234 542.734 544.397 570.305 639.989 571.077 C 707.538 570.53 772.879 556.599 798.927 510.572 C 769.48 544.793 712.632 556.513 653.909 558.015 Z" fill="#e4a345">
                    </path>
                    <path d="M 808.407 435.313 C 789.222 322.993 743.935 265.374 705.147 235.98 C 666.691 206.822 613.298 206.822 574.843 235.98 C 536.055 265.374 490.769 322.993 471.584 435.313 C 453.234 542.734 544.397 570.305 639.989 571.077 C 735.582 570.305 826.744 542.734 808.396 435.313 Z" stroke-linecap="round" stroke-linejoin="round" stroke="#333" stroke-width="4.9px" fill="none">
                    </path>
                    <path d="M 598.553 228.601 C 598.553 228.601 582.746 217.524 560.409 215.069 C 560.409 215.069 572.484 204.451 592.741 211.326 C 592.741 211.326 580.461 196.892 570.35 190.823 C 570.35 190.823 592.697 188.334 605.449 203.24 C 605.449 203.24 602.917 193.235 596.59 186.639 C 596.59 186.639 609.095 188.751 616.441 201.137 C 616.441 201.137 614.231 189.374 602.489 170.726 C 602.489 170.726 626.736 177.685 636.784 203.154 C 636.784 203.154 642.124 177.021 660.783 167.916 C 660.783 167.916 654.488 194.822 656.033 206.446 C 656.033 206.446 669.008 185.374 695.871 181.835 C 695.871 181.835 676.644 200.333 673.62 220.377 C 673.62 220.377 680.461 212.162 691.818 210.842 C 691.818 210.842 683.283 218.017 682.745 229.975" stroke-linecap="round" stroke-linejoin="round" stroke="#333" stroke-width="4.9px" fill="#efbf3f">
                    </path>
                    <path d="M 725.04 267.98 C 718.584 260.569 710.413 256.945 704.44 256.291 C 698.285 256.033 705.513 260.033 715.979 274.553 C 725.748 289.299 729.179 303.938 733.597 297.546 C 737.951 291.079 732.139 274.81 725.04 267.98 Z" fill="#f9e29c">
                    </path>
                </g>
                <g transform-origin="center" style="transform-box: fill-box;">
                    <g transform-origin="center" style="transform-box: fill-box;">
                        <g transform-origin="center" clip-path="url(#clipPath-w9x1V9F7fmtRbEYuk5LecX)" style="transform-box: fill-box;">
                            <g transform-origin="center" style="transform-box: fill-box;">
                                <g id="Eye" transform-origin="center" style="transform-box: fill-box;">
                                    <g id="Eyes1" transform-origin="center" style="transform-box: fill-box;">
                                        <circle cx="636.054" cy="332.89" r="77.5544" fill="#e4a345">
                                        </circle>
                                        <circle cx="640.001" cy="323.689" r="77.5544" fill="#fff">
                                        </circle>
                                        <path d="M 640.001 379.549 C 600.848 379.549 568.483 350.542 563.208 312.848 C 562.715 316.387 562.446 320.011 562.446 323.689 C 562.446 366.52 597.169 401.245 640.001 401.245 C 682.832 401.245 717.554 366.52 717.554 323.689 C 717.554 320.011 717.297 316.387 716.794 312.848 C 711.518 350.542 679.152 379.549 640.001 379.549 Z" fill="#f2f2f2">
                                        </path>
                                        <circle cx="640.001" cy="323.689" r="77.5544" stroke-linecap="round" stroke-linejoin="round" stroke="#333" stroke-width="4.9px" fill="none">
                                        </circle>
                                        <g transform-origin="center" style="transform-box: fill-box;">
                                            <circle cx="640.001" cy="323.689" r="55.8601" fill="#333">
                                            </circle>
                                            <circle cx="667.883" cy="295.808" r="19.7209" fill="#fff">
                                            </circle>
                                            <circle cx="668.364" cy="352.054" r="6.57368" fill="#fff">
                                            </circle>
                                            <animateTransform attributeName="transform" type="translate" begin="-0.00002" dur="20.00004" keyTimes="0; 0.14999999999999997; 0.15999999999999998; 0.225; 0.23500000000000001; 0.55; 0.5599999999999999; 0.65; 0.6599999999999999; 1" values="0, 0;0, 0;5, -8;5, -8;0, 0;0, 0;0, 5;0, 5;0;0, 0" fill="freeze" additive="sum" calcMode="spline" keySplines="0 0 1 1;0 0 1 1;0 0 1 1;0 0 1 1;0 0 1 1;0 0 1 1;0 0 1 1;0 0 1 1;0 0 1 1" repeatCount="indefinite">
                                            </animateTransform>
                                        </g>
                                    </g>
                                    <g>
                                        <circle cx="640.001" cy="323.689" r="77.5544" stroke-linecap="round" stroke-linejoin="round" stroke="#333" stroke-width="4.9px" fill="#efbf3f">
                                        </circle>
                                        <path d="M 640.001 379.549 C 600.848 379.549 568.483 350.542 563.208 312.848 C 562.715 316.387 562.446 320.011 562.446 323.689 C 562.446 366.52 597.169 401.245 640.001 401.245 C 682.832 401.245 717.554 366.52 717.554 323.689 C 717.554 320.011 717.297 316.387 716.794 312.848 C 711.518 350.542 679.152 379.549 640.001 379.549 Z" stroke-linecap="round" stroke-linejoin="round" stroke="#333" stroke-width="4.9px" fill="none">
                                        </path>
                                        <animate attributeName="opacity" keyTimes="0; 0.09999999999999999; 0.10049999999999998; 0.107; 0.10749999999999998; 0.3; 0.3005; 0.307; 0.30750000000000005; 0.8999996000004; 0.9004996000004; 0.9069996000003999; 0.9074996000004001; 1" values="0; 0; 1; 1; 0; 0; 1; 1; 0; 0; 1; 1; 0; 0" begin="-0.00002" dur="20.00004" fill="freeze" calcMode="spline" keySplines="0 0 1 1;0 0 1 1;0 0 1 1;0 0 1 1;0 0 1 1;0 0 1 1;0 0 1 1;0 0 1 1;0 0 1 1;0 0 1 1;0 0 1 1;0 0 1 1;0 0 1 1" repeatCount="indefinite">
                                        </animate>
                                    </g>
                                    <g id="Heart">
                                        <path d="M 749.866 358.896 C 747.409 356.441 743.42 356.441 740.954 358.896 L 739.592 360.258 L 738.231 358.896 C 736.997 357.663 735.388 357.052 733.78 357.052 C 732.17 357.052 730.552 357.663 729.33 358.896 C 726.873 361.351 726.873 365.339 729.33 367.807 L 730.692 369.168 L 739.602 378.08 L 748.514 369.168 L 749.875 367.807 C 752.332 365.351 752.332 361.363 749.875 358.896 Z" fill="#e76267">
                                        </path>
                                        <circle cx="733.34" cy="362.36" r="2.62733" fill="#fff">
                                        </circle>
                                        <path d="M 550.683 358.896 C 548.225 356.441 544.237 356.441 541.771 358.896 L 540.408 360.258 L 539.046 358.896 C 537.813 357.663 536.206 357.052 534.596 357.052 C 532.988 357.052 531.367 357.663 530.146 358.896 C 527.69 361.351 527.69 365.339 530.146 367.807 L 531.508 369.168 L 540.42 378.08 L 549.331 369.168 L 550.692 367.807 C 553.148 365.351 553.148 361.363 550.692 358.896 Z" fill="#e76267">
                                        </path>
                                        <circle cx="534.158" cy="362.36" r="2.62733" fill="#fff">
                                        </circle>
                                    </g>
                                </g>
                                <g>
                                    <path d="M 640.001 425.555 C 623.356 425.555 607.947 419.474 595.313 409.126" stroke-linecap="round" stroke-linejoin="round" stroke="#333" fill="none" stroke-width="6.13px" stroke-dasharray="100,100" stroke-dashoffset="40" pathLength="100">
                                        <animate attributeName="stroke-dashoffset" keyTimes="0; 0.0125; 0.125; 0.1375; 0.5; 0.5125; 0.625; 0.6375; 1" values="40; 0; 0; 40; 40; 0; 0; 40; 40" begin="-0.00002" dur="20.00004" fill="freeze" calcMode="spline" keySplines="0 0 1 1; 0 0 1 1; 0 0 1 1; 0 0 1 1; 0 0 1 1; 0 0 1 1; 0 0 1 1; 0 0 1 1" repeatCount="indefinite">
                                        </animate>
                                    </path>
                                    <path d="M 640.001 425.555 C 656.644 425.555 672.053 419.474 684.687 409.12600000000003" stroke-linecap="round" stroke-linejoin="round" stroke="#333" fill="none" stroke-width="6.13px" stroke-dasharray="100,100" stroke-dashoffset="40" pathLength="100">
                                        <animate attributeName="stroke-dashoffset" keyTimes="0; 0.0125; 0.125; 0.1375; 0.5; 0.5125; 0.625; 0.6375; 1" values="40; 0; 0; 40; 40; 0; 0; 40; 40" begin="-0.00002" dur="20.00004" fill="freeze" calcMode="spline" keySplines="0 0 1 1; 0 0 1 1; 0 0 1 1; 0 0 1 1; 0 0 1 1; 0 0 1 1; 0 0 1 1; 0 0 1 1" repeatCount="indefinite">
                                        </animate>
                                    </path>
                                    <path d="M 620.976 429.973 C 625.555 435.356 632.375 438.777 640.001 438.777 C 647.625 438.777 654.446 435.356 659.024 429.973 C 653.18 432.45 646.756 433.823 640.001 433.823 C 633.245 433.823 626.82 432.45 620.976 429.973 Z" fill="#e4a345">
                                    </path>
                                </g>
                                <g id="Hands_In">
                                    <path id="Right" d="M 783.902 456.279 C 783.902 456.279 780.514 484.268 751.678 502.069 C 722.841 519.88 697.232 512.589 692.15 511.399 C 687.067 510.209 687.185 502.198 694.423 500.181 C 694.423 500.181 679.925 502.595 678.145 496.364 C 676.364 490.133 681.243 487.753 686.113 486.273 C 686.113 486.273 673.266 488.686 673.007 480.171 C 672.75 471.646 683.442 472.032 683.442 472.032 C 683.442 472.032 676.805 470.145 676.429 465.179 C 676.043 460.214 679.732 458.304 682.402 457.801 C 685.073 457.297 710.261 455.131 734.68 435.539" stroke-linecap="round" stroke-linejoin="round" stroke="#333" stroke-width="4.9px" fill="none">
                                    </path>
                                    <path id="Left" d="M 496.098 456.279 C 496.098 456.279 499.486 484.268 528.323 502.069 C 557.16 519.88 582.768 512.589 587.85 511.399 C 592.934 510.209 592.815 502.198 585.578 500.181 C 585.578 500.181 600.076 502.595 601.856 496.364 C 603.636 490.133 598.756 487.753 593.889 486.273 C 593.889 486.273 606.736 488.686 606.993 480.171 C 607.25 471.646 596.558 472.032 596.558 472.032 C 596.558 472.032 603.196 470.145 603.571 465.179 C 603.946 460.214 600.269 458.304 597.599 457.801 C 594.927 457.297 569.738 455.131 545.32 435.539" stroke-linecap="round" stroke-linejoin="round" stroke="#333" stroke-width="4.9px" fill="none">
                                    </path>
                                </g>
                                <animateTransform attributeName="transform" type="translate" begin="-0.00002" dur="8.000039999999998" keyTimes="0; 0.0625; 0.125; 0.1875; 1" values="0, 0;-310, 0;310, 0;0;0, 0" fill="freeze" additive="sum" calcMode="spline" keySplines="0.42 0 0.58 1;0 0 1 1;0 0 0.58 1;0 0 1 1" repeatCount="indefinite">
                                </animateTransform>
                                <animate attributeName="opacity" keyTimes="0; 0.0625; 0.062625; 0.125; 0.125125; 0.1875; 1" values="1; 1; 0; 0; 1; 1; 1" begin="-0.00002" dur="8.000039999999998" fill="freeze" calcMode="spline" keySplines="0 0 1 1;0 0 1 1;0 0 1 1;0 0 1 1;0 0 1 1;0 0 1 1" repeatCount="indefinite">
                                </animate>
                            </g>
                        </g>
                        <clipPath id="clipPath-w9x1V9F7fmtRbEYuk5LecX">
                            <path d="M 808.407 435.313 C 789.222 322.993 743.935 265.374 705.147 235.98 C 666.691 206.822 613.298 206.822 574.843 235.98 C 536.055 265.374 490.769 322.993 471.584 435.313 C 453.234 542.734 544.397 570.305 639.989 571.077 C 735.582 570.305 826.744 542.734 808.396 435.313 Z" stroke-linecap="round" stroke-linejoin="round" stroke="#333" stroke-width="4.9px" fill="none">
                            </path>
                        </clipPath>
                    </g>
                </g>
                <g id="Hands_Out">
                    <path id="Right1" d="M 768.826 469.811 C 768.826 469.811 795.838 477.865 823.667 458.53 C 851.494 439.196 855.024 412.804 855.966 407.667 C 856.91 402.531 849.51 399.453 844.782 405.276 C 844.782 405.276 852.782 392.943 847.774 388.826 C 842.766 384.707 838.647 388.225 835.345 392.108 C 835.345 392.108 842.691 381.287 834.97 377.662 C 827.259 374.028 823.346 383.979 823.346 383.979 C 823.346 383.979 824.256 377.137 819.859 374.809 C 815.463 372.484 812.246 375.1 810.712 377.35 C 809.178 379.603 797.147 401.833 769.447 416.407" stroke-linecap="round" stroke-linejoin="round" stroke="#333" stroke-width="4.9px" fill="#efbf3f">
                    </path>
                    <path id="Left1" d="M 511.175 469.811 C 511.175 469.811 484.162 477.865 456.335 458.53 C 428.506 439.196 424.977 412.804 424.034 407.667 C 423.09 402.531 430.49 399.453 435.218 405.276 C 435.218 405.276 427.218 392.943 432.227 388.826 C 437.234 384.707 441.353 388.225 444.656 392.108 C 444.656 392.108 437.31 381.287 445.03 377.662 C 452.742 374.028 456.655 383.979 456.655 383.979 C 456.655 383.979 455.744 377.137 460.141 374.809 C 464.538 372.484 467.755 375.1 469.289 377.35 C 470.821 379.603 482.853 401.833 510.554 416.407" stroke-linecap="round" stroke-linejoin="round" stroke="#333" stroke-width="4.9px" fill="#efbf3f">
                    </path>
                    <animate attributeName="opacity" keyTimes="0; 1.0" values="0;0" begin="-0.00002" dur="3.0000400000000003" fill="freeze" calcMode="spline" keySplines="0 0 1 1" repeatCount="indefinite">
                    </animate>
                </g>
                <g transform-origin="center" style="transform-box: fill-box;">
                    <g transform-origin="center" clip-path="url(#clipPath-dpe7iYeLVNDapWmzGQNYd3)" style="transform-box: fill-box;">
                        <g id="Wings_2" transform-origin="center" transform="" style="transform-box: fill-box;">
                            <path d="M 555.419 337.459 C 569.5 318.38 592.136 306.006 617.672 306.006 C 651.836 306.006 680.834 328.172 691.042 358.896 L 658.625 358.896 L 662.003 370.317 C 663.665 375.936 658.452 381.157 652.833 379.518 L 632.757 373.642 L 633.767 384.43 C 634.261 389.758 629.103 393.833 624.041 392.128 L 575.945 375.925" stroke-linecap="round" stroke-linejoin="round" stroke="rgb(51, 51, 51)" stroke-width="4.9px" fill="#efbf3f" transform-origin="center" transform="matrix(0.5,0.8660255074501038,-0.8660255074501038,0.5,101.97389221191406,51.16884994506837)" style="transform-box: fill-box;">
                            </path>
                            <path d="M 497.288 376.88 L 452.024 392.128 C 446.95 393.833 441.803 389.758 442.296 384.43 L 443.304 373.642 L 423.23 379.518 C 417.611 381.157 412.398 375.936 414.06 370.317 L 417.439 358.896 L 385.01 358.896 C 395.229 328.161 424.216 306.006 458.381 306.006 C 483.915 306.006 506.554 318.38 520.634 337.459" stroke-linecap="round" stroke-linejoin="round" stroke="rgb(51, 51, 51)" stroke-width="4.9px" fill="#efbf3f" transform-origin="center" transform="matrix(0.5,-0.8660255074501038,0.8660255074501038,0.5,101.97389221191406,51.16884994506836)" style="transform-box: fill-box;">
                            </path>
                            <animateTransform attributeName="transform" type="translate" begin="-0.00002" dur="8.000039999999998" keyTimes="0; 0.0375; 0.075; 0.11249999999999999; 0.15; 1" values="300, 0; 300, 0; 0, 0; -300, 0; -300, 0; -300, 0" fill="freeze" additive="sum" calcMode="spline" keySplines="0 0 1 1; 0 0 1 1; 0 0 1 1; 0 0 1 1; 0 0 1 1" repeatCount="indefinite">
                            </animateTransform>
                        </g>
                    </g>
                    <clipPath id="clipPath-dpe7iYeLVNDapWmzGQNYd3">
                        <path d="M 808.407 435.313 C 789.222 322.993 743.935 265.374 705.147 235.98 C 666.691 206.822 613.298 206.822 574.843 235.98 C 536.055 265.374 490.769 322.993 471.584 435.313 C 453.234 542.734 544.397 570.305 639.989 571.077 C 735.582 570.305 826.744 542.734 808.396 435.313 Z" stroke-linecap="round" stroke-linejoin="round" stroke="#333" stroke-width="4.9px" fill="none">
                        </path>
                    </clipPath>
                </g>
            </g>
            <animateTransform attributeName="transform" type="translate" begin="-0.00002" dur="8.000039999999998" keyTimes="0; 0.03749999999999999; 0.07125000000000001; 0.1125; 0.14999999999999997; 1" values="0, 0; 0, 5; 0, -10; 0, 3; 0, 0; 0, 0" fill="freeze" additive="sum" calcMode="spline" keySplines="0 0 1 1; 0 0 1 1; 0 0 1 1; 0 0 1 1; 0 0 1 1" repeatCount="indefinite">
            </animateTransform>
        </g>
    </g>
</svg>
